<svg width="32" height="32" viewBox="0 0 32 32" fill="none" xmlns="http://www.w3.org/2000/svg">
<rect width="32" height="32" rx="5.70302" fill="#2787F5"/>
<path fill-rule="evenodd" clip-rule="evenodd" d="M25.3371 11.3926C25.4723 10.9695 25.3371 10.6587 24.6935 10.6587H22.5652C22.0241 10.6587 21.7746 10.9272 21.6393 11.2233C21.6393 11.2233 20.557 13.698 19.0238 15.3054C18.5278 15.7707 18.3023 15.9188 18.0317 15.9188C17.8964 15.9188 17.7006 15.7707 17.7006 15.3477V11.3926C17.7006 10.8849 17.5436 10.6587 17.0926 10.6587H13.7482C13.41 10.6587 13.2066 10.8943 13.2066 11.1176C13.2066 11.5988 13.9732 11.7098 14.0522 13.0635V16.0034C14.0522 16.648 13.9281 16.7649 13.6576 16.7649C12.9361 16.7649 11.1811 14.2792 10.1402 11.4348C9.93617 10.882 9.73157 10.6587 9.18765 10.6587H7.0594C6.45133 10.6587 6.32971 10.9272 6.32971 11.2233C6.32971 11.7521 7.05124 14.3748 9.68925 17.8435C11.4479 20.2124 13.9257 21.4965 16.1805 21.4965C17.5333 21.4965 17.7006 21.2113 17.7006 20.72V18.9296C17.7006 18.3592 17.8288 18.2454 18.2572 18.2454C18.5729 18.2454 19.114 18.3934 20.3767 19.5356C21.8197 20.8892 22.0576 21.4965 22.8693 21.4965H24.9975C25.6056 21.4965 25.9096 21.2113 25.7342 20.6485C25.5423 20.0875 24.8533 19.2736 23.9391 18.3088C23.4431 17.7589 22.699 17.1667 22.4735 16.8706C22.1579 16.4899 22.2481 16.3206 22.4735 15.9823C22.4735 15.9823 25.0665 12.5558 25.3371 11.3926Z" fill="url(#paint0_linear_49_115)"/>
<defs>
<linearGradient id="paint0_linear_49_115" x1="16.0566" y1="10.6587" x2="16.0566" y2="21.4965" gradientUnits="userSpaceOnUse">
<stop stop-color="white"/>
<stop offset="1" stop-color="#DDDDDD"/>
</linearGradient>
</defs>
</svg>
