<svg width="24" height="24" viewBox="0 0 24 24" fill="none" xmlns="http://www.w3.org/2000/svg">
<rect width="24" height="24" rx="5.70302" fill="#00D95F"/>
<path d="M6.00012 17.5556L6.86109 14.3543C6.16674 13.1073 5.94614 11.652 6.23977 10.2557C6.5334 8.85934 7.32156 7.61554 8.45963 6.75252C9.5977 5.88951 11.0093 5.46516 12.4355 5.55736C13.8617 5.64955 15.2067 6.25211 16.2238 7.25445C17.2409 8.25679 17.8618 9.59168 17.9726 11.0142C18.0834 12.4367 17.6766 13.8513 16.827 14.9986C15.9773 16.1458 14.7417 16.9487 13.347 17.2599C11.9522 17.5711 10.4919 17.3697 9.23385 16.6927L6.00012 17.5556ZM9.38978 15.4947L9.58977 15.6132C10.501 16.1524 11.5653 16.3755 12.6168 16.2478C13.6682 16.1201 14.6479 15.6487 15.403 14.9071C16.1582 14.1655 16.6464 13.1954 16.7915 12.1479C16.9367 11.1004 16.7308 10.0343 16.2057 9.11589C15.6807 8.19746 14.866 7.47821 13.8888 7.07024C12.9116 6.66226 11.8266 6.58848 10.8029 6.8604C9.77931 7.13231 8.87452 7.73464 8.22958 8.57352C7.58464 9.4124 7.23577 10.4407 7.23735 11.4982C7.23649 12.375 7.47939 13.2349 7.93901 13.9821L8.06442 14.1885L7.58309 15.9753L9.38978 15.4947Z" fill="white"/>
<path fill-rule="evenodd" clip-rule="evenodd" d="M14.2436 12.3202C14.1264 12.2258 13.9891 12.1593 13.8422 12.1259C13.6954 12.0925 13.5428 12.093 13.3962 12.1273C13.1759 12.2187 13.0335 12.5638 12.8911 12.7364C12.8611 12.7778 12.817 12.8068 12.7671 12.818C12.7172 12.8292 12.6648 12.8219 12.62 12.7973C11.8133 12.4819 11.1372 11.9035 10.7014 11.1561C10.6642 11.1094 10.6467 11.0502 10.6523 10.9909C10.658 10.9316 10.6866 10.8767 10.7319 10.838C10.8907 10.6811 11.0073 10.4867 11.0709 10.2728C11.085 10.037 11.0309 9.80204 10.915 9.59604C10.8254 9.30723 10.6548 9.05007 10.4235 8.85494C10.3042 8.80136 10.1719 8.7834 10.0425 8.80321C9.91323 8.82303 9.79242 8.87978 9.69469 8.96661C9.52503 9.11275 9.39036 9.29502 9.30061 9.5C9.21085 9.70498 9.1683 9.92745 9.17607 10.151C9.1766 10.2766 9.19253 10.4016 9.22353 10.5233C9.30224 10.8156 9.42328 11.0949 9.58283 11.3524C9.69794 11.5496 9.82354 11.7405 9.95908 11.9243C10.3996 12.528 10.9533 13.0405 11.5895 13.4335C11.9088 13.6332 12.25 13.7956 12.6064 13.9175C12.9767 14.085 13.3855 14.1493 13.7894 14.1036C14.0195 14.0688 14.2376 13.9781 14.4244 13.8394C14.6112 13.7007 14.7609 13.5184 14.8605 13.3083C14.919 13.1815 14.9368 13.0396 14.9114 12.9022C14.8504 12.6214 14.4741 12.4556 14.2436 12.3202Z" fill="white"/>
</svg>
